#tb 0: 1/25
0,          0,          0,        1,   608256, 0x27a069a3
0,          1,          1,        1,   608256, 0x22a5ff96
0,          2,          2,        1,   608256, 0x29ad753f
0,          3,          3,        1,   608256, 0x955788a6
0,          4,          4,        1,   608256, 0xb73599c5
0,          5,          5,        1,   608256, 0x73765aca
0,          6,          6,        1,   608256, 0x39118f45
0,          7,          7,        1,   608256, 0xfb0f8b96
0,          8,          8,        1,   608256, 0xfcf71085
0,          9,          9,        1,   608256, 0xccaaca7d
0,         10,         10,        1,   608256, 0xde873299
0,         11,         11,        1,   608256, 0x5d904202
0,         12,         12,        1,   608256, 0x1e92c9b8
0,         13,         13,        1,   608256, 0xdb8ec231
0,         14,         14,        1,   608256, 0x388e2b9f
0,         15,         15,        1,   608256, 0x1d190c39
0,         16,         16,        1,   608256, 0xb6609efd
0,         17,         17,        1,   608256, 0x0c6bf1d0
0,         18,         18,        1,   608256, 0x178e0a3c
0,         19,         19,        1,   608256, 0x439509f7
0,         20,         20,        1,   608256, 0x00eb29ec
0,         21,         21,        1,   608256, 0xee45f2a0
0,         22,         22,        1,   608256, 0xae62eb8c
0,         23,         23,        1,   608256, 0x3bb7510d
0,         24,         24,        1,   608256, 0x03f08d02
0,         25,         25,        1,   608256, 0x4beffc2a
0,         26,         26,        1,   608256, 0x6071eb56
0,         27,         27,        1,   608256, 0xbcb4e4e5
0,         28,         28,        1,   608256, 0x775864aa
0,         29,         29,        1,   608256, 0x3cfa0a94
0,         30,         30,        1,   608256, 0x4652d529
0,         31,         31,        1,   608256, 0xc5be07e2
0,         32,         32,        1,   608256, 0xe7b480a2
0,         33,         33,        1,   608256, 0x83b11945
0,         34,         34,        1,   608256, 0x25ff0458
0,         35,         35,        1,   608256, 0x5a780cda
0,         36,         36,        1,   608256, 0x3448077c
0,         37,         37,        1,   608256, 0x0f9c6f09
0,         38,         38,        1,   608256, 0x05ece146
0,         39,         39,        1,   608256, 0x3b02b504
0,         40,         40,        1,   608256, 0xf3a8e2a6
0,         41,         41,        1,   608256, 0xd4544847
0,         42,         42,        1,   608256, 0x49bd2a3f
0,         43,         43,        1,   608256, 0x22a42082
0,         44,         44,        1,   608256, 0x8d8d1923
0,         45,         45,        1,   608256, 0x2ba6877f
0,         46,         46,        1,   608256, 0x494d481b
0,         47,         47,        1,   608256, 0x28c99c35
0,         48,         48,        1,   608256, 0x80128077
0,         49,         49,        1,   608256, 0x887c2fb0
0,         50,         50,        1,   608256, 0xfaba3fe4
0,         51,         51,        1,   608256, 0x0369a227
0,         52,         52,        1,   608256, 0xe62cb2b1
0,         53,         53,        1,   608256, 0x851d9e78
0,         54,         54,        1,   608256, 0x6847b938
0,         55,         55,        1,   608256, 0x48eb702e
0,         56,         56,        1,   608256, 0x3eb52eec
0,         57,         57,        1,   608256, 0xf880edf8
0,         58,         58,        1,   608256, 0xf7ac1860
0,         59,         59,        1,   608256, 0x3ead29f3
0,         60,         60,        1,   608256, 0x6db1860a
0,         61,         61,        1,   608256, 0x72ee9271
0,         62,         62,        1,   608256, 0xa8b643e4
0,         63,         63,        1,   608256, 0x22a95a3e
0,         64,         64,        1,   608256, 0x4e8aa877
0,         65,         65,        1,   608256, 0x9545cfcf
0,         66,         66,        1,   608256, 0x42d820e0
0,         67,         67,        1,   608256, 0xe701ea6f
0,         68,         68,        1,   608256, 0x05f61a49
0,         69,         69,        1,   608256, 0xc1de9f65
0,         70,         70,        1,   608256, 0x2b121933
0,         71,         71,        1,   608256, 0x4de4e185
0,         72,         72,        1,   608256, 0x01c6fb05
0,         73,         73,        1,   608256, 0x1fbf8603
0,         74,         74,        1,   608256, 0x9d8f2fd4
0,         75,         75,        1,   608256, 0xb7d6f14e
0,         76,         76,        1,   608256, 0x503c33a9
0,         77,         77,        1,   608256, 0x051e8b02
0,         78,         78,        1,   608256, 0xeff7c286
0,         79,         79,        1,   608256, 0xeb80088a
0,         80,         80,        1,   608256, 0xffbc6cec
0,         81,         81,        1,   608256, 0x42d55e9d
0,         82,         82,        1,   608256, 0x4898c507
0,         83,         83,        1,   608256, 0x2c2411b5
0,         84,         84,        1,   608256, 0xd70a34a4
0,         85,         85,        1,   608256, 0xce5e64f5
0,         86,         86,        1,   608256, 0x7790d293
0,         87,         87,        1,   608256, 0xac5b44fb
0,         88,         88,        1,   608256, 0xae4c2921
0,         89,         89,        1,   608256, 0x373a26bb
0,         90,         90,        1,   608256, 0x3aa3fed4
0,         91,         91,        1,   608256, 0x4f4b1496
0,         92,         92,        1,   608256, 0x4760fe2b
0,         93,         93,        1,   608256, 0x9e38af43
0,         94,         94,        1,   608256, 0xd7c66f6e
0,         95,         95,        1,   608256, 0xf6cb1649
0,         96,         96,        1,   608256, 0xb0591bf1
0,         97,         97,        1,   608256, 0xb507b282
0,         98,         98,        1,   608256, 0xfb53c6e5
0,         99,         99,        1,   608256, 0x5410f10f
